/* XPM */
static char *FindHelp[] = {
/* columns rows colors chars-per-pixel */
"18 18 256 2",
"   c #14181A",
".  c #2D2F2E",
"X  c #32393E",
"o  c #3E403D",
"O  c #3C4349",
"+  c #464745",
"@  c #4A5158",
"#  c #545553",
"$  c #5D5F5C",
"%  c #55606C",
"&  c #5C636A",
"*  c #676E76",
"=  c #3A70B0",
"-  c #547EB5",
";  c #687380",
":  c #7E807E",
">  c #5786B7",
",  c #778492",
"<  c #6289B5",
"1  c #6C91BE",
"2  c #6697C1",
"3  c #6995C8",
"4  c #779AC5",
"5  c #78A1CF",
"6  c #8B8D8C",
"7  c #949794",
"8  c #8192A8",
"9  c #8893A0",
"0  c #949FAC",
"q  c #91A3B5",
"w  c #A5A7A5",
"e  c #B5B7B4",
"r  c #87A6C8",
"t  c #86A9D1",
"y  c #82ABD9",
"u  c #8EAFD8",
"i  c #96B9D7",
"p  c #9EB7D8",
"a  c #98B8E2",
"s  c #A9B4C0",
"d  c #BBC1C5",
"f  c #A4C0E4",
"g  c #ADC6E2",
"h  c #AECAEE",
"j  c #B9CEE7",
"k  c #B8D1F0",
"l  c none",
"z  c #D0D2CF",
"x  c #D6D9DC",
"c  c #C0D1E5",
"v  c #C9D9E6",
"b  c #C8D9ED",
"n  c #C2D9F9",
"m  c #D6E8FB",
"M  c #D8E4F2",
"N  c #DFECFA",
"B  c #E4EBEE",
"V  c #E5ECF5",
"C  c #F0F6F8",
"Z  c #F6FCFE",
"A  c #000000",
"S  c #000000",
"D  c #000000",
"F  c #000000",
"G  c #000000",
"H  c #000000",
"J  c #000000",
"K  c #000000",
"L  c #000000",
"P  c #000000",
"I  c #000000",
"U  c #000000",
"Y  c #000000",
"T  c #000000",
"R  c #000000",
"E  c #000000",
"W  c #000000",
"Q  c #000000",
"!  c #000000",
"~  c #000000",
"^  c #000000",
"/  c #000000",
"(  c #000000",
")  c #000000",
"_  c #000000",
"`  c #000000",
"'  c #000000",
"]  c #000000",
"[  c #000000",
"{  c #000000",
"}  c #000000",
"|  c #000000",
" . c #000000",
".. c #000000",
"X. c #000000",
"o. c #000000",
"O. c #000000",
"+. c #000000",
"@. c #000000",
"#. c #000000",
"$. c #000000",
"%. c #000000",
"&. c #000000",
"*. c #000000",
"=. c #000000",
"-. c #000000",
";. c #000000",
":. c #000000",
">. c #000000",
",. c #000000",
"<. c #000000",
"1. c #000000",
"2. c #000000",
"3. c #000000",
"4. c #000000",
"5. c #000000",
"6. c #000000",
"7. c #000000",
"8. c #000000",
"9. c #000000",
"0. c #000000",
"q. c #000000",
"w. c #000000",
"e. c #000000",
"r. c #000000",
"t. c #000000",
"y. c #000000",
"u. c #000000",
"i. c #000000",
"p. c #000000",
"a. c #000000",
"s. c #000000",
"d. c #000000",
"f. c #000000",
"g. c #000000",
"h. c #000000",
"j. c #000000",
"k. c #000000",
"l. c #000000",
"z. c #000000",
"x. c #000000",
"c. c #000000",
"v. c #000000",
"b. c #000000",
"n. c #000000",
"m. c #000000",
"M. c #000000",
"N. c #000000",
"B. c #000000",
"V. c #000000",
"C. c #000000",
"Z. c #000000",
"A. c #000000",
"S. c #000000",
"D. c #000000",
"F. c #000000",
"G. c #000000",
"H. c #000000",
"J. c #000000",
"K. c #000000",
"L. c #000000",
"P. c #000000",
"I. c #000000",
"U. c #000000",
"Y. c #000000",
"T. c #000000",
"R. c #000000",
"E. c #000000",
"W. c #000000",
"Q. c #000000",
"!. c #000000",
"~. c #000000",
"^. c #000000",
"/. c #000000",
"(. c #000000",
"). c #000000",
"_. c #000000",
"`. c #000000",
"'. c #000000",
"]. c #000000",
"[. c #000000",
"{. c #000000",
"}. c #000000",
"|. c #000000",
" X c #000000",
".X c #000000",
"XX c #000000",
"oX c #000000",
"OX c #000000",
"+X c #000000",
"@X c #000000",
"#X c #000000",
"$X c #000000",
"%X c #000000",
"&X c #000000",
"*X c #000000",
"=X c #000000",
"-X c #000000",
";X c #000000",
":X c #000000",
">X c #000000",
",X c #000000",
"<X c #000000",
"1X c #000000",
"2X c #000000",
"3X c #000000",
"4X c #000000",
"5X c #000000",
"6X c #000000",
"7X c #000000",
"8X c #000000",
"9X c #000000",
"0X c #000000",
"qX c #000000",
"wX c #000000",
"eX c #000000",
"rX c #000000",
"tX c #000000",
"yX c #000000",
"uX c #000000",
"iX c #000000",
"pX c #000000",
"aX c #000000",
"sX c #000000",
"dX c #000000",
"fX c #000000",
"gX c #000000",
"hX c #000000",
"jX c #000000",
"kX c #000000",
"lX c #000000",
"zX c #000000",
"xX c #000000",
"cX c #000000",
"vX c #000000",
"bX c #000000",
"nX c #000000",
"mX c #000000",
"MX c #000000",
"NX c #000000",
"BX c #000000",
"VX c #000000",
"CX c #000000",
"ZX c #000000",
"AX c #000000",
"SX c #000000",
"DX c #000000",
"FX c #000000",
"GX c #000000",
"HX c #000000",
"JX c #000000",
"KX c #000000",
"LX c #000000",
"PX c #000000",
"IX c #000000",
"UX c #000000",
/* pixels */
"l l l l l l l l l l l l l l l l l l ",
"l l l l l l l l l l l l l l l l l l ",
"l l l l l l n n k k l l l l l l l l ",
"l l l l n N M M M M M h l l l l l l ",
"l l l k N M f u y i b M f l l l l l ",
"l l k N b y i V V g y j M u l l l l ",
"l l m b y 5 C Z Z C t 5 b c l l l l ",
"l f M p 4 4 V j c Z c 2 i M 4 l l l ",
"l a M 5 4 2 2 j B * * x & & 3 l l l ",
"l u M 5 2 2 2 B s 9 @ d @ , 7 l l l ",
"l y M p 4 1 1 1 % ; O , @ , O l l l ",
"l l j b 4 1 1 6 @ q % ; % 8 @ : l l ",
"l l 3 b c 1 < & & @ + 6 X O X . l l ",
"l l l > b c r * s 0 : z & s 9 # l l ",
"l l l l - p v & s * $ e & s ; . l l ",
"l l l l l l = & 0 & O w @ , &   l l ",
"l l l l l l l X O . # e X o X o l l ",
"l l l l l l l l l l l l l l l l l l "
};
