/* XPM */
static char *LoadSesn[] = {
/* columns rows colors chars-per-pixel */
"18 18 256 2",
"   c #DA872B",
".  c #DB9332",
"X  c #D99C35",
"o  c #DAAE36",
"O  c #DCB537",
"+  c #DC9B46",
"@  c #DDA857",
"#  c #E5B858",
"$  c #E6BE79",
"%  c #F2CC25",
"&  c #F1D33F",
"*  c #F4D85B",
"=  c #E2C560",
"-  c #F1D663",
";  c #F3D76B",
":  c #F0D272",
">  c #F7DF7E",
",  c #8B8D8C",
"<  c #949794",
"1  c #9D9F9C",
"2  c #A5A7A5",
"3  c #ACAEAB",
"4  c #B5B7B4",
"5  c #F7DF89",
"6  c #F6DD92",
"7  c #F7E29F",
"8  c #F9EAB0",
"9  c none",
"0  c #C7C9C6",
"q  c #D0D2CF",
"w  c #D9D5C7",
"e  c #D7D9D6",
"r  c #E0E2DF",
"t  c #ECE9DD",
"y  c #F9F0C8",
"u  c #FBF5DD",
"i  c #E8EBE8",
"p  c #F0F3EF",
"a  c #FCFAEE",
"s  c #F4F7F3",
"d  c #F9FCF8",
"f  c #FDFFFC",
"g  c #000000",
"h  c #000000",
"j  c #000000",
"k  c #000000",
"l  c #000000",
"z  c #000000",
"x  c #000000",
"c  c #000000",
"v  c #000000",
"b  c #000000",
"n  c #000000",
"m  c #000000",
"M  c #000000",
"N  c #000000",
"B  c #000000",
"V  c #000000",
"C  c #000000",
"Z  c #000000",
"A  c #000000",
"S  c #000000",
"D  c #000000",
"F  c #000000",
"G  c #000000",
"H  c #000000",
"J  c #000000",
"K  c #000000",
"L  c #000000",
"P  c #000000",
"I  c #000000",
"U  c #000000",
"Y  c #000000",
"T  c #000000",
"R  c #000000",
"E  c #000000",
"W  c #000000",
"Q  c #000000",
"!  c #000000",
"~  c #000000",
"^  c #000000",
"/  c #000000",
"(  c #000000",
")  c #000000",
"_  c #000000",
"`  c #000000",
"'  c #000000",
"]  c #000000",
"[  c #000000",
"{  c #000000",
"}  c #000000",
"|  c #000000",
" . c #000000",
".. c #000000",
"X. c #000000",
"o. c #000000",
"O. c #000000",
"+. c #000000",
"@. c #000000",
"#. c #000000",
"$. c #000000",
"%. c #000000",
"&. c #000000",
"*. c #000000",
"=. c #000000",
"-. c #000000",
";. c #000000",
":. c #000000",
">. c #000000",
",. c #000000",
"<. c #000000",
"1. c #000000",
"2. c #000000",
"3. c #000000",
"4. c #000000",
"5. c #000000",
"6. c #000000",
"7. c #000000",
"8. c #000000",
"9. c #000000",
"0. c #000000",
"q. c #000000",
"w. c #000000",
"e. c #000000",
"r. c #000000",
"t. c #000000",
"y. c #000000",
"u. c #000000",
"i. c #000000",
"p. c #000000",
"a. c #000000",
"s. c #000000",
"d. c #000000",
"f. c #000000",
"g. c #000000",
"h. c #000000",
"j. c #000000",
"k. c #000000",
"l. c #000000",
"z. c #000000",
"x. c #000000",
"c. c #000000",
"v. c #000000",
"b. c #000000",
"n. c #000000",
"m. c #000000",
"M. c #000000",
"N. c #000000",
"B. c #000000",
"V. c #000000",
"C. c #000000",
"Z. c #000000",
"A. c #000000",
"S. c #000000",
"D. c #000000",
"F. c #000000",
"G. c #000000",
"H. c #000000",
"J. c #000000",
"K. c #000000",
"L. c #000000",
"P. c #000000",
"I. c #000000",
"U. c #000000",
"Y. c #000000",
"T. c #000000",
"R. c #000000",
"E. c #000000",
"W. c #000000",
"Q. c #000000",
"!. c #000000",
"~. c #000000",
"^. c #000000",
"/. c #000000",
"(. c #000000",
"). c #000000",
"_. c #000000",
"`. c #000000",
"'. c #000000",
"]. c #000000",
"[. c #000000",
"{. c #000000",
"}. c #000000",
"|. c #000000",
" X c #000000",
".X c #000000",
"XX c #000000",
"oX c #000000",
"OX c #000000",
"+X c #000000",
"@X c #000000",
"#X c #000000",
"$X c #000000",
"%X c #000000",
"&X c #000000",
"*X c #000000",
"=X c #000000",
"-X c #000000",
";X c #000000",
":X c #000000",
">X c #000000",
",X c #000000",
"<X c #000000",
"1X c #000000",
"2X c #000000",
"3X c #000000",
"4X c #000000",
"5X c #000000",
"6X c #000000",
"7X c #000000",
"8X c #000000",
"9X c #000000",
"0X c #000000",
"qX c #000000",
"wX c #000000",
"eX c #000000",
"rX c #000000",
"tX c #000000",
"yX c #000000",
"uX c #000000",
"iX c #000000",
"pX c #000000",
"aX c #000000",
"sX c #000000",
"dX c #000000",
"fX c #000000",
"gX c #000000",
"hX c #000000",
"jX c #000000",
"kX c #000000",
"lX c #000000",
"zX c #000000",
"xX c #000000",
"cX c #000000",
"vX c #000000",
"bX c #000000",
"nX c #000000",
"mX c #000000",
"MX c #000000",
"NX c #000000",
"BX c #000000",
"VX c #000000",
"CX c #000000",
"ZX c #000000",
"AX c #000000",
"SX c #000000",
"DX c #000000",
"FX c #000000",
"GX c #000000",
"HX c #000000",
"JX c #000000",
"KX c #000000",
"LX c #000000",
"PX c #000000",
"IX c #000000",
"UX c #000000",
/* pixels */
"9 9 9 9 9 9 9 9 9 9 9 9 9 9 9 9 9 9 ",
"9 9 9 9 9 9 9 9 9 9 4 4 4 3 3 9 9 9 ",
"9 9 9 9 9 9 9 9 4 e i d d p e 3 9 9 ",
"9 9 9 9 9 9 9 9 4 s p d d s s 2 9 9 ",
"9 9 9 9 9 9 9 9 4 p e r r 0 p 2 9 9 ",
"9 9 9 9 9 9 9 9 4 s e p q q f 1 9 9 ",
"9 O = = = = = O 3 s q p 0 0 f 1 9 9 ",
"9 O f f f f f a 3 s q i 0 0 f 1 9 9 ",
"9 o d 5 6 7 8 a 3 d e r 0 q f < 9 9 ",
"9 o a 6 6 5 # # . . . . . . . , 9 9 ",
"9 o a $ @ + @ a a t w w w e . 9 9 9 ",
"9 o f d a a a 8 5 5 > : : t . 9 9 9 ",
"9 X a y 8 8 5 5 > > - * * a . 9 9 9 ",
"9 X a 8 7 5 > > > ; * * & a . 9 9 9 ",
"9 . a 7 5 > ; * * & & % % y . 9 9 9 ",
"9   u 8 7 7 6 6 5 : : : ; y   9 9 9 ",
"9 9                           9 9 9 ",
"9 9 9 9 9 9 9 9 9 9 9 9 9 9 9 9 9 9 "
};
