/* XPM */
static char *Make[] = {
/* columns rows colors chars-per-pixel */
"18 18 256 2",
"   c #545553",
".  c #5D5F5C",
"X  c #6E706D",
"o  c #345B91",
"O  c #36679D",
"+  c #3D6B98",
"@  c #3974A8",
"#  c #7E807E",
"$  c #5786B7",
"%  c #6C91BE",
"&  c #7D99BC",
"*  c #4988C1",
"=  c #538FCC",
"-  c #5798CC",
";  c #6C98D4",
":  c #60A9DF",
">  c #75A1D4",
",  c #76A2DC",
"<  c #7CA8DB",
"1  c #6BB3E9",
"2  c #73A2E2",
"3  c #8B8D8C",
"4  c #949794",
"5  c #9D9F9C",
"6  c #8192A8",
"7  c #949FAC",
"8  c #A5A7A5",
"9  c #ACAEAB",
"0  c #B5B7B4",
"q  c #BDBFBC",
"w  c #87A6C8",
"e  c #8EAFD8",
"r  c #9EB7D8",
"t  c #80B8E4",
"y  c #8AC8F5",
"u  c #BBC1C5",
"i  c #BBC7D5",
"p  c #ADC6E2",
"a  c #AECAEE",
"s  c #A2C5F1",
"d  c #AACEF1",
"f  c #B9CEE7",
"g  c #B8D1F0",
"h  c #BCDDFB",
"j  c none",
"k  c #C7C9C6",
"l  c #D0D2CF",
"z  c #D7D9D6",
"x  c #D6D9DC",
"c  c #C0D1E5",
"v  c #C8D9ED",
"b  c #C2D9F9",
"n  c #C4E0F8",
"m  c #CCE0F9",
"M  c #D6E8FB",
"N  c #D8E4F2",
"B  c #DFECFA",
"V  c #E0E2DF",
"C  c #E4EBEE",
"Z  c #E8EBE8",
"A  c #E5ECF5",
"S  c #EAF3FC",
"D  c #F0F6F8",
"F  c #F6FCFE",
"G  c #FDFFFC",
"H  c #000000",
"J  c #000000",
"K  c #000000",
"L  c #000000",
"P  c #000000",
"I  c #000000",
"U  c #000000",
"Y  c #000000",
"T  c #000000",
"R  c #000000",
"E  c #000000",
"W  c #000000",
"Q  c #000000",
"!  c #000000",
"~  c #000000",
"^  c #000000",
"/  c #000000",
"(  c #000000",
")  c #000000",
"_  c #000000",
"`  c #000000",
"'  c #000000",
"]  c #000000",
"[  c #000000",
"{  c #000000",
"}  c #000000",
"|  c #000000",
" . c #000000",
".. c #000000",
"X. c #000000",
"o. c #000000",
"O. c #000000",
"+. c #000000",
"@. c #000000",
"#. c #000000",
"$. c #000000",
"%. c #000000",
"&. c #000000",
"*. c #000000",
"=. c #000000",
"-. c #000000",
";. c #000000",
":. c #000000",
">. c #000000",
",. c #000000",
"<. c #000000",
"1. c #000000",
"2. c #000000",
"3. c #000000",
"4. c #000000",
"5. c #000000",
"6. c #000000",
"7. c #000000",
"8. c #000000",
"9. c #000000",
"0. c #000000",
"q. c #000000",
"w. c #000000",
"e. c #000000",
"r. c #000000",
"t. c #000000",
"y. c #000000",
"u. c #000000",
"i. c #000000",
"p. c #000000",
"a. c #000000",
"s. c #000000",
"d. c #000000",
"f. c #000000",
"g. c #000000",
"h. c #000000",
"j. c #000000",
"k. c #000000",
"l. c #000000",
"z. c #000000",
"x. c #000000",
"c. c #000000",
"v. c #000000",
"b. c #000000",
"n. c #000000",
"m. c #000000",
"M. c #000000",
"N. c #000000",
"B. c #000000",
"V. c #000000",
"C. c #000000",
"Z. c #000000",
"A. c #000000",
"S. c #000000",
"D. c #000000",
"F. c #000000",
"G. c #000000",
"H. c #000000",
"J. c #000000",
"K. c #000000",
"L. c #000000",
"P. c #000000",
"I. c #000000",
"U. c #000000",
"Y. c #000000",
"T. c #000000",
"R. c #000000",
"E. c #000000",
"W. c #000000",
"Q. c #000000",
"!. c #000000",
"~. c #000000",
"^. c #000000",
"/. c #000000",
"(. c #000000",
"). c #000000",
"_. c #000000",
"`. c #000000",
"'. c #000000",
"]. c #000000",
"[. c #000000",
"{. c #000000",
"}. c #000000",
"|. c #000000",
" X c #000000",
".X c #000000",
"XX c #000000",
"oX c #000000",
"OX c #000000",
"+X c #000000",
"@X c #000000",
"#X c #000000",
"$X c #000000",
"%X c #000000",
"&X c #000000",
"*X c #000000",
"=X c #000000",
"-X c #000000",
";X c #000000",
":X c #000000",
">X c #000000",
",X c #000000",
"<X c #000000",
"1X c #000000",
"2X c #000000",
"3X c #000000",
"4X c #000000",
"5X c #000000",
"6X c #000000",
"7X c #000000",
"8X c #000000",
"9X c #000000",
"0X c #000000",
"qX c #000000",
"wX c #000000",
"eX c #000000",
"rX c #000000",
"tX c #000000",
"yX c #000000",
"uX c #000000",
"iX c #000000",
"pX c #000000",
"aX c #000000",
"sX c #000000",
"dX c #000000",
"fX c #000000",
"gX c #000000",
"hX c #000000",
"jX c #000000",
"kX c #000000",
"lX c #000000",
"zX c #000000",
"xX c #000000",
"cX c #000000",
"vX c #000000",
"bX c #000000",
"nX c #000000",
"mX c #000000",
"MX c #000000",
"NX c #000000",
"BX c #000000",
"VX c #000000",
"CX c #000000",
"ZX c #000000",
"AX c #000000",
"SX c #000000",
"DX c #000000",
"FX c #000000",
"GX c #000000",
"HX c #000000",
"JX c #000000",
"KX c #000000",
"LX c #000000",
"PX c #000000",
"IX c #000000",
"UX c #000000",
/* pixels */
"j j j j j j j j j j j j j j j j j j ",
"j j j j : t t 1 1 : : : : : : j j j ",
"j j j j y G G G G F S B M n p : j j ",
"j j j : d G B B S S D F F G F n : j ",
"j j j - d F M M M B B B B G 2 F t j ",
"j j j - g S m n m M M M M G > v - j ",
"j j j - n B b b m n n m M F = - j j ",
"j j j * N M h h h h h u 0 F - j j j ",
"j j j * S m h h i u f q q C 7 8 j j ",
"j j j * F h h h 0 z q z z 0 l 3 j j ",
"j j j $ F h h h i l 9 # 3 0 k 4 j j ",
"j j j $ G h h 0 k Z 3 b M 4 V 0 3 j ",
"j j @ e B s a 8 0 V 5 n S 4 l 4 . j ",
"j j O $ < , ; ; & k q 4 4 0 q X j j ",
"j O w G G G G F 5 k 8 k q 5 k X j j ",
"j j % r p c N A 9 X x 5 3 6 .   j j ",
"j j o o o o o o o O + X . o j j j j ",
"j j j j j j j j j j j j j j j j j j "
};
