/* XPM */
static char *Print[] = {
/* columns rows colors chars-per-pixel */
"18 18 256 2",
"   c #242625",
".  c #2D2F2E",
"X  c #3E403D",
"o  c #545553",
"O  c #5D5F5C",
"+  c #6E706D",
"@  c #517DC7",
"#  c #7E807E",
"$  c #4F80C5",
"%  c #4988C1",
"&  c #538FCC",
"*  c #5A97DF",
"=  c #6995C8",
"-  c #8B8D8C",
";  c #949794",
":  c #9D9F9C",
">  c #A5A7A5",
",  c #ACAEAB",
"<  c #B5B7B4",
"1  c #BDBFBC",
"2  c #8AB1E1",
"3  c #BBC1C5",
"4  c #B8D1F0",
"5  c #BCDDFB",
"6  c none",
"7  c #C7C9C6",
"8  c #D0D2CF",
"9  c #D7D9D6",
"0  c #C2D9F9",
"q  c #C4E0F8",
"w  c #CCE0F9",
"e  c #D6E8FB",
"r  c #D8E4F2",
"t  c #E0E2DF",
"y  c #E8EBE8",
"u  c #E5ECF5",
"i  c #EAF3FC",
"p  c #F0F3EF",
"a  c #F0F6F8",
"s  c #F6FCFE",
"d  c #F9FCF8",
"f  c #000000",
"g  c #000000",
"h  c #000000",
"j  c #000000",
"k  c #000000",
"l  c #000000",
"z  c #000000",
"x  c #000000",
"c  c #000000",
"v  c #000000",
"b  c #000000",
"n  c #000000",
"m  c #000000",
"M  c #000000",
"N  c #000000",
"B  c #000000",
"V  c #000000",
"C  c #000000",
"Z  c #000000",
"A  c #000000",
"S  c #000000",
"D  c #000000",
"F  c #000000",
"G  c #000000",
"H  c #000000",
"J  c #000000",
"K  c #000000",
"L  c #000000",
"P  c #000000",
"I  c #000000",
"U  c #000000",
"Y  c #000000",
"T  c #000000",
"R  c #000000",
"E  c #000000",
"W  c #000000",
"Q  c #000000",
"!  c #000000",
"~  c #000000",
"^  c #000000",
"/  c #000000",
"(  c #000000",
")  c #000000",
"_  c #000000",
"`  c #000000",
"'  c #000000",
"]  c #000000",
"[  c #000000",
"{  c #000000",
"}  c #000000",
"|  c #000000",
" . c #000000",
".. c #000000",
"X. c #000000",
"o. c #000000",
"O. c #000000",
"+. c #000000",
"@. c #000000",
"#. c #000000",
"$. c #000000",
"%. c #000000",
"&. c #000000",
"*. c #000000",
"=. c #000000",
"-. c #000000",
";. c #000000",
":. c #000000",
">. c #000000",
",. c #000000",
"<. c #000000",
"1. c #000000",
"2. c #000000",
"3. c #000000",
"4. c #000000",
"5. c #000000",
"6. c #000000",
"7. c #000000",
"8. c #000000",
"9. c #000000",
"0. c #000000",
"q. c #000000",
"w. c #000000",
"e. c #000000",
"r. c #000000",
"t. c #000000",
"y. c #000000",
"u. c #000000",
"i. c #000000",
"p. c #000000",
"a. c #000000",
"s. c #000000",
"d. c #000000",
"f. c #000000",
"g. c #000000",
"h. c #000000",
"j. c #000000",
"k. c #000000",
"l. c #000000",
"z. c #000000",
"x. c #000000",
"c. c #000000",
"v. c #000000",
"b. c #000000",
"n. c #000000",
"m. c #000000",
"M. c #000000",
"N. c #000000",
"B. c #000000",
"V. c #000000",
"C. c #000000",
"Z. c #000000",
"A. c #000000",
"S. c #000000",
"D. c #000000",
"F. c #000000",
"G. c #000000",
"H. c #000000",
"J. c #000000",
"K. c #000000",
"L. c #000000",
"P. c #000000",
"I. c #000000",
"U. c #000000",
"Y. c #000000",
"T. c #000000",
"R. c #000000",
"E. c #000000",
"W. c #000000",
"Q. c #000000",
"!. c #000000",
"~. c #000000",
"^. c #000000",
"/. c #000000",
"(. c #000000",
"). c #000000",
"_. c #000000",
"`. c #000000",
"'. c #000000",
"]. c #000000",
"[. c #000000",
"{. c #000000",
"}. c #000000",
"|. c #000000",
" X c #000000",
".X c #000000",
"XX c #000000",
"oX c #000000",
"OX c #000000",
"+X c #000000",
"@X c #000000",
"#X c #000000",
"$X c #000000",
"%X c #000000",
"&X c #000000",
"*X c #000000",
"=X c #000000",
"-X c #000000",
";X c #000000",
":X c #000000",
">X c #000000",
",X c #000000",
"<X c #000000",
"1X c #000000",
"2X c #000000",
"3X c #000000",
"4X c #000000",
"5X c #000000",
"6X c #000000",
"7X c #000000",
"8X c #000000",
"9X c #000000",
"0X c #000000",
"qX c #000000",
"wX c #000000",
"eX c #000000",
"rX c #000000",
"tX c #000000",
"yX c #000000",
"uX c #000000",
"iX c #000000",
"pX c #000000",
"aX c #000000",
"sX c #000000",
"dX c #000000",
"fX c #000000",
"gX c #000000",
"hX c #000000",
"jX c #000000",
"kX c #000000",
"lX c #000000",
"zX c #000000",
"xX c #000000",
"cX c #000000",
"vX c #000000",
"bX c #000000",
"nX c #000000",
"mX c #000000",
"MX c #000000",
"NX c #000000",
"BX c #000000",
"VX c #000000",
"CX c #000000",
"ZX c #000000",
"AX c #000000",
"SX c #000000",
"DX c #000000",
"FX c #000000",
"GX c #000000",
"HX c #000000",
"JX c #000000",
"KX c #000000",
"LX c #000000",
"PX c #000000",
"IX c #000000",
"UX c #000000",
/* pixels */
"6 6 6 6 6 6 6 6 6 6 6 6 6 6 6 6 6 6 ",
"6 6 6 6 6 & & & & & % @ 6 6 6 6 6 6 ",
"6 6 6 6 % a a a a i r 2 * 6 6 6 6 6 ",
"6 6 6 6 % a w w q 5 s q 2 @ 6 6 6 6 ",
"6 6 6 6 % a w w w 0 u a u $ 6 6 6 6 ",
"6 6 6 6 % a e e w w 0 4 a $ 6 6 6 6 ",
"6 6 6 # % a e e e w 5 5 a $ o 6 6 6 ",
"6 6 : 7 & a e e w w q 5 i $ 1 + 6 6 ",
"6 # 8 y # # # # # # # # # # y 7 o 6 ",
"6 # d d 7 p p p p p p p p 7 d d + 6 ",
"6 # d d , t 7 7 7 7 7 7 t > d d O 6 ",
"6 # 9 9 ; 9 1 1 1 1 1 1 9 - 9 9 X 6 ",
"6 + < < - 8 < < < < < < 8 # < < . 6 ",
"6 + < < ; # # # + O o X X + < <   6 ",
"6 + > < # > 3 3 3 3 3 3 > . < :   6 ",
"6 O O o = a i i i u u u s =     6 6 ",
"6 6 6 6 = = = = = = = = = = 6 6 6 6 ",
"6 6 6 6 6 6 6 6 6 6 6 6 6 6 6 6 6 6 "
};
