/* XPM */
static char *Replace[] = {
/* columns rows colors chars-per-pixel */
"18 18 256 2",
"   c #37792F",
".  c #397787",
"X  c #0863D8",
"o  c #1F71DB",
"O  c #2D7DDF",
"+  c #3C8438",
"@  c #478E3C",
"#  c #539454",
"$  c #53A34E",
"%  c #6AA574",
"&  c #7AB66F",
"*  c #3B85DF",
"=  c #388EE4",
"-  c #479490",
";  c #4DA38B",
":  c #6FB2BB",
">  c #4988C1",
",  c #5A97DF",
"<  c #4B97E6",
"1  c #5991E2",
"2  c #61A1E8",
"3  c #73A2E2",
"4  c #84C27B",
"5  c #84B0EB",
"6  c #89C985",
"7  c #97C8B5",
"8  c #BDE6B5",
"9  c none",
"0  c #000000",
"q  c #000000",
"w  c #000000",
"e  c #000000",
"r  c #000000",
"t  c #000000",
"y  c #000000",
"u  c #000000",
"i  c #000000",
"p  c #000000",
"a  c #000000",
"s  c #000000",
"d  c #000000",
"f  c #000000",
"g  c #000000",
"h  c #000000",
"j  c #000000",
"k  c #000000",
"l  c #000000",
"z  c #000000",
"x  c #000000",
"c  c #000000",
"v  c #000000",
"b  c #000000",
"n  c #000000",
"m  c #000000",
"M  c #000000",
"N  c #000000",
"B  c #000000",
"V  c #000000",
"C  c #000000",
"Z  c #000000",
"A  c #000000",
"S  c #000000",
"D  c #000000",
"F  c #000000",
"G  c #000000",
"H  c #000000",
"J  c #000000",
"K  c #000000",
"L  c #000000",
"P  c #000000",
"I  c #000000",
"U  c #000000",
"Y  c #000000",
"T  c #000000",
"R  c #000000",
"E  c #000000",
"W  c #000000",
"Q  c #000000",
"!  c #000000",
"~  c #000000",
"^  c #000000",
"/  c #000000",
"(  c #000000",
")  c #000000",
"_  c #000000",
"`  c #000000",
"'  c #000000",
"]  c #000000",
"[  c #000000",
"{  c #000000",
"}  c #000000",
"|  c #000000",
" . c #000000",
".. c #000000",
"X. c #000000",
"o. c #000000",
"O. c #000000",
"+. c #000000",
"@. c #000000",
"#. c #000000",
"$. c #000000",
"%. c #000000",
"&. c #000000",
"*. c #000000",
"=. c #000000",
"-. c #000000",
";. c #000000",
":. c #000000",
">. c #000000",
",. c #000000",
"<. c #000000",
"1. c #000000",
"2. c #000000",
"3. c #000000",
"4. c #000000",
"5. c #000000",
"6. c #000000",
"7. c #000000",
"8. c #000000",
"9. c #000000",
"0. c #000000",
"q. c #000000",
"w. c #000000",
"e. c #000000",
"r. c #000000",
"t. c #000000",
"y. c #000000",
"u. c #000000",
"i. c #000000",
"p. c #000000",
"a. c #000000",
"s. c #000000",
"d. c #000000",
"f. c #000000",
"g. c #000000",
"h. c #000000",
"j. c #000000",
"k. c #000000",
"l. c #000000",
"z. c #000000",
"x. c #000000",
"c. c #000000",
"v. c #000000",
"b. c #000000",
"n. c #000000",
"m. c #000000",
"M. c #000000",
"N. c #000000",
"B. c #000000",
"V. c #000000",
"C. c #000000",
"Z. c #000000",
"A. c #000000",
"S. c #000000",
"D. c #000000",
"F. c #000000",
"G. c #000000",
"H. c #000000",
"J. c #000000",
"K. c #000000",
"L. c #000000",
"P. c #000000",
"I. c #000000",
"U. c #000000",
"Y. c #000000",
"T. c #000000",
"R. c #000000",
"E. c #000000",
"W. c #000000",
"Q. c #000000",
"!. c #000000",
"~. c #000000",
"^. c #000000",
"/. c #000000",
"(. c #000000",
"). c #000000",
"_. c #000000",
"`. c #000000",
"'. c #000000",
"]. c #000000",
"[. c #000000",
"{. c #000000",
"}. c #000000",
"|. c #000000",
" X c #000000",
".X c #000000",
"XX c #000000",
"oX c #000000",
"OX c #000000",
"+X c #000000",
"@X c #000000",
"#X c #000000",
"$X c #000000",
"%X c #000000",
"&X c #000000",
"*X c #000000",
"=X c #000000",
"-X c #000000",
";X c #000000",
":X c #000000",
">X c #000000",
",X c #000000",
"<X c #000000",
"1X c #000000",
"2X c #000000",
"3X c #000000",
"4X c #000000",
"5X c #000000",
"6X c #000000",
"7X c #000000",
"8X c #000000",
"9X c #000000",
"0X c #000000",
"qX c #000000",
"wX c #000000",
"eX c #000000",
"rX c #000000",
"tX c #000000",
"yX c #000000",
"uX c #000000",
"iX c #000000",
"pX c #000000",
"aX c #000000",
"sX c #000000",
"dX c #000000",
"fX c #000000",
"gX c #000000",
"hX c #000000",
"jX c #000000",
"kX c #000000",
"lX c #000000",
"zX c #000000",
"xX c #000000",
"cX c #000000",
"vX c #000000",
"bX c #000000",
"nX c #000000",
"mX c #000000",
"MX c #000000",
"NX c #000000",
"BX c #000000",
"VX c #000000",
"CX c #000000",
"ZX c #000000",
"AX c #000000",
"SX c #000000",
"DX c #000000",
"FX c #000000",
"GX c #000000",
"HX c #000000",
"JX c #000000",
"KX c #000000",
"LX c #000000",
"PX c #000000",
"IX c #000000",
"UX c #000000",
/* pixels */
"9 9 9 9 9 9 9 9 9 9 9 9 9 9 9 9 9 9 ",
"9 9 9 < < 9 9 9 9 9 9 9 9 9 9 9 9 9 ",
"9 9 9 = = 9 9 9 9 9 9 9 9 9 9 9 9 9 ",
"9 9 9 < = * * 9 9 9 9 9 9 9 9 9 9 9 ",
"9 9 9 , * O 1 O 9 9 9 9 9 9 9 9 9 9 ",
"9 9 * O 9 9 o * 9 9 9 9 9 9 9 9 9 9 ",
"9 9 O o 9 9 ; ; 9 9 9 9 9 9 9 9 9 9 ",
"9 9 * o 9 % 6 6 $ 9 # 9 = = = 9 9 9 ",
"9 o o o o - 4 8 & - < 2 = , 3 , 9 9 ",
"9 9 9 9 9 9 $ & 7 , 2 = 9 * 2 < 9 9 ",
"9 9 9 9 9 9 9 @ : 2 > 9 9 O 2 < 9 9 ",
"9 9 9 9 9 9 @ +   . . * O 1 5 o 9 9 ",
"9 9 9 9 9 9 9 9 * < 1 O o 2 3 o 9 9 ",
"9 9 9 9 9 9 9 * < < 9 9 9 1 * 9 9 9 ",
"9 9 9 9 9 9 9 = 5 O 9 9 o 3 O 9 9 9 ",
"9 9 9 9 9 9 9 = 5 1 o o * 3 1 o 9 9 ",
"9 9 9 9 9 9 9 o o o o 9 9 X X X 9 9 ",
"9 9 9 9 9 9 9 9 9 9 9 9 9 9 9 9 9 9 "
};
