/* XPM */
static char *RunCtags[] = {
/* columns rows colors chars-per-pixel */
"18 18 256 2",
"   c #345B91",
".  c #36679D",
"X  c #3D6B98",
"o  c #3974A8",
"O  c #5173AB",
"+  c #547EB5",
"@  c #3B85DF",
"#  c #5786B7",
"$  c #6289B5",
"%  c #6C91BE",
"&  c #7D99BC",
"*  c #4988C1",
"=  c #538FCC",
"-  c #5798CC",
";  c #5A97DF",
":  c #5991E2",
">  c #5DABEA",
",  c #6C98D4",
"<  c #60A9DF",
"1  c #75A1D4",
"2  c #76A2DC",
"3  c #7CA8DB",
"4  c #61A1E8",
"5  c #6BB3E9",
"6  c #73A2E2",
"7  c #87A6C8",
"8  c #8EAFD8",
"9  c #9EB7D8",
"0  c #84B0EB",
"q  c #80B8E4",
"w  c #8AB1E1",
"e  c #93B9E8",
"r  c #8AC8F5",
"t  c #A4C0E4",
"y  c #ADC6E2",
"u  c #AECAEE",
"i  c #A2C5F1",
"p  c #AACEF1",
"a  c #B8D1F0",
"s  c #BCDDFB",
"d  c none",
"f  c #C0D1E5",
"g  c #C9D9E6",
"h  c #C8D9ED",
"j  c #C2D9F9",
"k  c #C4E0F8",
"l  c #CCE0F9",
"z  c #D6E8FB",
"x  c #D8E4F2",
"c  c #DFECFA",
"v  c #E5ECF5",
"b  c #EAF3FC",
"n  c #F0F6F8",
"m  c #F6FCFE",
"M  c #FDFFFC",
"N  c #000000",
"B  c #000000",
"V  c #000000",
"C  c #000000",
"Z  c #000000",
"A  c #000000",
"S  c #000000",
"D  c #000000",
"F  c #000000",
"G  c #000000",
"H  c #000000",
"J  c #000000",
"K  c #000000",
"L  c #000000",
"P  c #000000",
"I  c #000000",
"U  c #000000",
"Y  c #000000",
"T  c #000000",
"R  c #000000",
"E  c #000000",
"W  c #000000",
"Q  c #000000",
"!  c #000000",
"~  c #000000",
"^  c #000000",
"/  c #000000",
"(  c #000000",
")  c #000000",
"_  c #000000",
"`  c #000000",
"'  c #000000",
"]  c #000000",
"[  c #000000",
"{  c #000000",
"}  c #000000",
"|  c #000000",
" . c #000000",
".. c #000000",
"X. c #000000",
"o. c #000000",
"O. c #000000",
"+. c #000000",
"@. c #000000",
"#. c #000000",
"$. c #000000",
"%. c #000000",
"&. c #000000",
"*. c #000000",
"=. c #000000",
"-. c #000000",
";. c #000000",
":. c #000000",
">. c #000000",
",. c #000000",
"<. c #000000",
"1. c #000000",
"2. c #000000",
"3. c #000000",
"4. c #000000",
"5. c #000000",
"6. c #000000",
"7. c #000000",
"8. c #000000",
"9. c #000000",
"0. c #000000",
"q. c #000000",
"w. c #000000",
"e. c #000000",
"r. c #000000",
"t. c #000000",
"y. c #000000",
"u. c #000000",
"i. c #000000",
"p. c #000000",
"a. c #000000",
"s. c #000000",
"d. c #000000",
"f. c #000000",
"g. c #000000",
"h. c #000000",
"j. c #000000",
"k. c #000000",
"l. c #000000",
"z. c #000000",
"x. c #000000",
"c. c #000000",
"v. c #000000",
"b. c #000000",
"n. c #000000",
"m. c #000000",
"M. c #000000",
"N. c #000000",
"B. c #000000",
"V. c #000000",
"C. c #000000",
"Z. c #000000",
"A. c #000000",
"S. c #000000",
"D. c #000000",
"F. c #000000",
"G. c #000000",
"H. c #000000",
"J. c #000000",
"K. c #000000",
"L. c #000000",
"P. c #000000",
"I. c #000000",
"U. c #000000",
"Y. c #000000",
"T. c #000000",
"R. c #000000",
"E. c #000000",
"W. c #000000",
"Q. c #000000",
"!. c #000000",
"~. c #000000",
"^. c #000000",
"/. c #000000",
"(. c #000000",
"). c #000000",
"_. c #000000",
"`. c #000000",
"'. c #000000",
"]. c #000000",
"[. c #000000",
"{. c #000000",
"}. c #000000",
"|. c #000000",
" X c #000000",
".X c #000000",
"XX c #000000",
"oX c #000000",
"OX c #000000",
"+X c #000000",
"@X c #000000",
"#X c #000000",
"$X c #000000",
"%X c #000000",
"&X c #000000",
"*X c #000000",
"=X c #000000",
"-X c #000000",
";X c #000000",
":X c #000000",
">X c #000000",
",X c #000000",
"<X c #000000",
"1X c #000000",
"2X c #000000",
"3X c #000000",
"4X c #000000",
"5X c #000000",
"6X c #000000",
"7X c #000000",
"8X c #000000",
"9X c #000000",
"0X c #000000",
"qX c #000000",
"wX c #000000",
"eX c #000000",
"rX c #000000",
"tX c #000000",
"yX c #000000",
"uX c #000000",
"iX c #000000",
"pX c #000000",
"aX c #000000",
"sX c #000000",
"dX c #000000",
"fX c #000000",
"gX c #000000",
"hX c #000000",
"jX c #000000",
"kX c #000000",
"lX c #000000",
"zX c #000000",
"xX c #000000",
"cX c #000000",
"vX c #000000",
"bX c #000000",
"nX c #000000",
"mX c #000000",
"MX c #000000",
"NX c #000000",
"BX c #000000",
"VX c #000000",
"CX c #000000",
"ZX c #000000",
"AX c #000000",
"SX c #000000",
"DX c #000000",
"FX c #000000",
"GX c #000000",
"HX c #000000",
"JX c #000000",
"KX c #000000",
"LX c #000000",
"PX c #000000",
"IX c #000000",
"UX c #000000",
/* pixels */
"d d d d d d d d d d d d d d d d d d ",
"d d d d < q q 5 5 < < < < < < d d d ",
"d d d d r M M M M m b c z k y < d d ",
"d d d < p M c c b b n m m M m k < d ",
"d d d - t m z z z c c c c M 6 m q d ",
"d d d - > 5 l 5 5 k z z z M 1 h - d ",
"d d d ; 5 > j 5 q > s l z m = - d d ",
"d d > 5 4 j s p > 5 > e k m - d d d ",
"d > 5 > l l s s i > 5 4 j m * d d d ",
"d d 4 > ; u s p 4 > 4 0 l m * d d d ",
"d d d @ 4 : s ; 6 ; a j z v + d d d ",
"d d d + ; : s ; : a j j z g o d d d ",
"d d o 8 c i u p s k k k b f o d d d ",
"d d . # 3 2 , ; ; = = 6 l 9 . d d d ",
"d . 7 M M M M m m b b w z 9 . d d d ",
"d d % 9 y f x v b m m c c & d d d d ",
"d d               . X O $   d d d d ",
"d d d d d d d d d d d d d d d d d d "
};
