/* XPM */
static char *RunScript[] = {
/* columns rows colors chars-per-pixel */
"18 18 256 2",
"   c #34783E",
".  c #345B91",
"X  c #36679D",
"o  c #397787",
"O  c #3974A8",
"+  c #3C8438",
"@  c #478E3C",
"#  c #5DAB40",
"$  c #5FAD55",
"%  c #62A356",
"&  c #7CBC4F",
"*  c #6AA574",
"=  c #71B66B",
"-  c #7AB66F",
";  c #7EB26D",
":  c #72C365",
">  c #7BC076",
",  c #5786B7",
"<  c #5994AB",
"1  c #6C91BE",
"2  c #4988C1",
"3  c #538FCC",
"4  c #5798CC",
"5  c #5A97DF",
"6  c #6C98D4",
"7  c #60A9DF",
"8  c #75A1D4",
"9  c #76A2DC",
"0  c #7CA8DB",
"q  c #6BB3E9",
"w  c #73A2E2",
"e  c #85C05E",
"r  c #84C27B",
"t  c #92BD80",
"y  c #87A6C8",
"u  c #8EAFD8",
"i  c #9EB7D8",
"p  c #80B8E4",
"a  c #8CC380",
"s  c #89C985",
"d  c #94CC8B",
"f  c #9DCA84",
"g  c #97C8B5",
"h  c #A0D398",
"j  c #AAD3A1",
"k  c #AEDBA5",
"l  c #BDE6B5",
"z  c #8AC8F5",
"x  c #ADC6E2",
"c  c #AECAEE",
"v  c #A2C5F1",
"b  c #AACEF1",
"n  c #B8D1F0",
"m  c #BCDDFB",
"M  c none",
"N  c #C0D1E5",
"B  c #C9D9E6",
"V  c #C8D9ED",
"C  c #C2D9F9",
"Z  c #DEE9DB",
"A  c #C4E0F8",
"S  c #CCE0F9",
"D  c #D6E8FB",
"F  c #D8E4F2",
"G  c #DFECFA",
"H  c #E5ECF5",
"J  c #EAF3FC",
"K  c #F0F3EF",
"L  c #F4F7F3",
"P  c #F0F6F8",
"I  c #F6FCFE",
"U  c #F9FCF8",
"Y  c #FDFFFC",
"T  c #000000",
"R  c #000000",
"E  c #000000",
"W  c #000000",
"Q  c #000000",
"!  c #000000",
"~  c #000000",
"^  c #000000",
"/  c #000000",
"(  c #000000",
")  c #000000",
"_  c #000000",
"`  c #000000",
"'  c #000000",
"]  c #000000",
"[  c #000000",
"{  c #000000",
"}  c #000000",
"|  c #000000",
" . c #000000",
".. c #000000",
"X. c #000000",
"o. c #000000",
"O. c #000000",
"+. c #000000",
"@. c #000000",
"#. c #000000",
"$. c #000000",
"%. c #000000",
"&. c #000000",
"*. c #000000",
"=. c #000000",
"-. c #000000",
";. c #000000",
":. c #000000",
">. c #000000",
",. c #000000",
"<. c #000000",
"1. c #000000",
"2. c #000000",
"3. c #000000",
"4. c #000000",
"5. c #000000",
"6. c #000000",
"7. c #000000",
"8. c #000000",
"9. c #000000",
"0. c #000000",
"q. c #000000",
"w. c #000000",
"e. c #000000",
"r. c #000000",
"t. c #000000",
"y. c #000000",
"u. c #000000",
"i. c #000000",
"p. c #000000",
"a. c #000000",
"s. c #000000",
"d. c #000000",
"f. c #000000",
"g. c #000000",
"h. c #000000",
"j. c #000000",
"k. c #000000",
"l. c #000000",
"z. c #000000",
"x. c #000000",
"c. c #000000",
"v. c #000000",
"b. c #000000",
"n. c #000000",
"m. c #000000",
"M. c #000000",
"N. c #000000",
"B. c #000000",
"V. c #000000",
"C. c #000000",
"Z. c #000000",
"A. c #000000",
"S. c #000000",
"D. c #000000",
"F. c #000000",
"G. c #000000",
"H. c #000000",
"J. c #000000",
"K. c #000000",
"L. c #000000",
"P. c #000000",
"I. c #000000",
"U. c #000000",
"Y. c #000000",
"T. c #000000",
"R. c #000000",
"E. c #000000",
"W. c #000000",
"Q. c #000000",
"!. c #000000",
"~. c #000000",
"^. c #000000",
"/. c #000000",
"(. c #000000",
"). c #000000",
"_. c #000000",
"`. c #000000",
"'. c #000000",
"]. c #000000",
"[. c #000000",
"{. c #000000",
"}. c #000000",
"|. c #000000",
" X c #000000",
".X c #000000",
"XX c #000000",
"oX c #000000",
"OX c #000000",
"+X c #000000",
"@X c #000000",
"#X c #000000",
"$X c #000000",
"%X c #000000",
"&X c #000000",
"*X c #000000",
"=X c #000000",
"-X c #000000",
";X c #000000",
":X c #000000",
">X c #000000",
",X c #000000",
"<X c #000000",
"1X c #000000",
"2X c #000000",
"3X c #000000",
"4X c #000000",
"5X c #000000",
"6X c #000000",
"7X c #000000",
"8X c #000000",
"9X c #000000",
"0X c #000000",
"qX c #000000",
"wX c #000000",
"eX c #000000",
"rX c #000000",
"tX c #000000",
"yX c #000000",
"uX c #000000",
"iX c #000000",
"pX c #000000",
"aX c #000000",
"sX c #000000",
"dX c #000000",
"fX c #000000",
"gX c #000000",
"hX c #000000",
"jX c #000000",
"kX c #000000",
"lX c #000000",
"zX c #000000",
"xX c #000000",
"cX c #000000",
"vX c #000000",
"bX c #000000",
"nX c #000000",
"mX c #000000",
"MX c #000000",
"NX c #000000",
"BX c #000000",
"VX c #000000",
"CX c #000000",
"ZX c #000000",
"AX c #000000",
"SX c #000000",
"DX c #000000",
"FX c #000000",
"GX c #000000",
"HX c #000000",
"JX c #000000",
"KX c #000000",
"LX c #000000",
"PX c #000000",
"IX c #000000",
"UX c #000000",
/* pixels */
"M M M M M M M M M M M M M M M M M M ",
"M M M M 7 p p q q 7 7 7 7 7 7 M M M ",
"M M M M z Y Y Y Y I J G D A x 7 M M ",
"M M M 7 b Y G G J J P I I Y I A 7 M ",
"M M M 4 b I D D D G G G G Y w I p M ",
"M M M 4 n J S A S D D D D Y 8 V 4 M ",
"M M M 4 A G C C S A A S D I 3 4 M M ",
"M M M 2 F D m m m m m C A I 4 M M M ",
"M M M 2 J S m m C C B t ; t < M M M ",
"M M M 2 I m m m m g j l j k a % M M ",
"M M M , I m m m B j l r Y t h - M M ",
"M M M , Y m m C t k d = U L e f @ M ",
"M M O u G v c b ; d > e K K L $ @ M ",
"M M X , 0 9 6 5 * s : # K K & a @ M ",
"M X y Y Y Y Y I Z - d # K & f % M M ",
"M M 1 i x N F H J j - f t a % + M M ",
"M M . . . . . . . X o   @   M M M M ",
"M M M M M M M M M M M M M M M M M M "
};
