/* XPM */
static char *SaveSesn[] = {
/* columns rows colors chars-per-pixel */
"18 18 256 2",
"   c #2E62A8",
".  c #396AB9",
"X  c #3A70B0",
"o  c #5B7CB6",
"O  c #7CBC4F",
"+  c #4F80C5",
"@  c #5E86C1",
"#  c #638ECB",
"$  c #6E8BCC",
"%  c #6E88DB",
"&  c #6C98D4",
"*  c #7396CA",
"=  c #7190DC",
"-  c #7C9ED3",
";  c #799FE1",
":  c #76A2DC",
">  c #85C05E",
",  c #9BCB72",
"<  c #9D9F9C",
"1  c #A5A7A5",
"2  c #ACAEAB",
"3  c #B5B7B4",
"4  c #BDBFBC",
"5  c #96B4E8",
"6  c #93B9E8",
"7  c #A2B2EC",
"8  c #A7BEF0",
"9  c #A4C0E4",
"0  c #AECAEE",
"q  c #A2C5F1",
"w  c #B9CEE7",
"e  c #B8D1F0",
"r  c #C4EF86",
"t  c #CDEF98",
"y  c none",
"u  c #D0D2CF",
"i  c #D7D9D6",
"p  c #E0E2DF",
"a  c #FDFFDB",
"s  c #E4EBEE",
"d  c #E8EBE8",
"f  c #EBF3E5",
"g  c #EAF3FC",
"h  c #F0F3EF",
"j  c #F4F7F3",
"k  c #F0F6F8",
"l  c #F6FCFE",
"z  c #F9FCF8",
"x  c #FDFFFC",
"c  c #000000",
"v  c #000000",
"b  c #000000",
"n  c #000000",
"m  c #000000",
"M  c #000000",
"N  c #000000",
"B  c #000000",
"V  c #000000",
"C  c #000000",
"Z  c #000000",
"A  c #000000",
"S  c #000000",
"D  c #000000",
"F  c #000000",
"G  c #000000",
"H  c #000000",
"J  c #000000",
"K  c #000000",
"L  c #000000",
"P  c #000000",
"I  c #000000",
"U  c #000000",
"Y  c #000000",
"T  c #000000",
"R  c #000000",
"E  c #000000",
"W  c #000000",
"Q  c #000000",
"!  c #000000",
"~  c #000000",
"^  c #000000",
"/  c #000000",
"(  c #000000",
")  c #000000",
"_  c #000000",
"`  c #000000",
"'  c #000000",
"]  c #000000",
"[  c #000000",
"{  c #000000",
"}  c #000000",
"|  c #000000",
" . c #000000",
".. c #000000",
"X. c #000000",
"o. c #000000",
"O. c #000000",
"+. c #000000",
"@. c #000000",
"#. c #000000",
"$. c #000000",
"%. c #000000",
"&. c #000000",
"*. c #000000",
"=. c #000000",
"-. c #000000",
";. c #000000",
":. c #000000",
">. c #000000",
",. c #000000",
"<. c #000000",
"1. c #000000",
"2. c #000000",
"3. c #000000",
"4. c #000000",
"5. c #000000",
"6. c #000000",
"7. c #000000",
"8. c #000000",
"9. c #000000",
"0. c #000000",
"q. c #000000",
"w. c #000000",
"e. c #000000",
"r. c #000000",
"t. c #000000",
"y. c #000000",
"u. c #000000",
"i. c #000000",
"p. c #000000",
"a. c #000000",
"s. c #000000",
"d. c #000000",
"f. c #000000",
"g. c #000000",
"h. c #000000",
"j. c #000000",
"k. c #000000",
"l. c #000000",
"z. c #000000",
"x. c #000000",
"c. c #000000",
"v. c #000000",
"b. c #000000",
"n. c #000000",
"m. c #000000",
"M. c #000000",
"N. c #000000",
"B. c #000000",
"V. c #000000",
"C. c #000000",
"Z. c #000000",
"A. c #000000",
"S. c #000000",
"D. c #000000",
"F. c #000000",
"G. c #000000",
"H. c #000000",
"J. c #000000",
"K. c #000000",
"L. c #000000",
"P. c #000000",
"I. c #000000",
"U. c #000000",
"Y. c #000000",
"T. c #000000",
"R. c #000000",
"E. c #000000",
"W. c #000000",
"Q. c #000000",
"!. c #000000",
"~. c #000000",
"^. c #000000",
"/. c #000000",
"(. c #000000",
"). c #000000",
"_. c #000000",
"`. c #000000",
"'. c #000000",
"]. c #000000",
"[. c #000000",
"{. c #000000",
"}. c #000000",
"|. c #000000",
" X c #000000",
".X c #000000",
"XX c #000000",
"oX c #000000",
"OX c #000000",
"+X c #000000",
"@X c #000000",
"#X c #000000",
"$X c #000000",
"%X c #000000",
"&X c #000000",
"*X c #000000",
"=X c #000000",
"-X c #000000",
";X c #000000",
":X c #000000",
">X c #000000",
",X c #000000",
"<X c #000000",
"1X c #000000",
"2X c #000000",
"3X c #000000",
"4X c #000000",
"5X c #000000",
"6X c #000000",
"7X c #000000",
"8X c #000000",
"9X c #000000",
"0X c #000000",
"qX c #000000",
"wX c #000000",
"eX c #000000",
"rX c #000000",
"tX c #000000",
"yX c #000000",
"uX c #000000",
"iX c #000000",
"pX c #000000",
"aX c #000000",
"sX c #000000",
"dX c #000000",
"fX c #000000",
"gX c #000000",
"hX c #000000",
"jX c #000000",
"kX c #000000",
"lX c #000000",
"zX c #000000",
"xX c #000000",
"cX c #000000",
"vX c #000000",
"bX c #000000",
"nX c #000000",
"mX c #000000",
"MX c #000000",
"NX c #000000",
"BX c #000000",
"VX c #000000",
"CX c #000000",
"ZX c #000000",
"AX c #000000",
"SX c #000000",
"DX c #000000",
"FX c #000000",
"GX c #000000",
"HX c #000000",
"JX c #000000",
"KX c #000000",
"LX c #000000",
"PX c #000000",
"IX c #000000",
"UX c #000000",
/* pixels */
"y y y y y y y y y y y y y y y y y y ",
"y y y y 3 3 3 3 3 3 y y y y y y y y ",
"y y 3 u d h z z d p 4 2 y y y y y y ",
"y 3 p x x x x x x x z u 1 y y y y y ",
"y 3 j x x x x x x x z d 1 y y y y y ",
"y 3 j d h j z z h p 4 p 1 y y y y y ",
"y 3 j d p i u u 4 4 4 p 1 y y y y y ",
"y 3 j d p p p & - & - $ # * & # y y ",
"y 2 h d p p p $ 0 x w x x x x 9 $ y ",
"y 2 h d p i p @ q x * x x l g 5 $ y ",
"y 2 h p i u i @ 8 l l l l l l - + y ",
"y 2 h p u u i $ 5 : - : : : : : @ y ",
"y 1 p h i u i $ 6 : : : : : : & o y ",
"y y 1 u d h j + 5 k d d s d h : X y ",
"y y y < < < 2 + 7 f O , , > f ; X y ",
"y y y y y y y + e a r t t r a - X y ",
"y y y y y y y . @ $ % = = = $ X   y ",
"y y y y y y y y y y y y y y y y y y "
};
