/* XPM */
static char *SaveAll[] = {
/* columns rows colors chars-per-pixel */
"18 18 256 2",
"   c #2E62A8",
".  c #396AB9",
"X  c #3A70B0",
"o  c #4A70B4",
"O  c #5B7CB6",
"+  c #517DC7",
"@  c #7CBC4F",
"#  c #4F80C5",
"$  c #5E86C1",
"%  c #638ECB",
"&  c #6E8BCC",
"*  c #6E88DB",
"=  c #6C98D4",
"-  c #7396CA",
";  c #7190DC",
":  c #7C9ED3",
">  c #799FE1",
",  c #76A2DC",
"<  c #85C05E",
"1  c #9BCB72",
"2  c #9EB7D8",
"3  c #84B0EB",
"4  c #96B4E8",
"5  c #93B9E8",
"6  c #98B8E2",
"7  c #A2B2EC",
"8  c #A7BEF0",
"9  c #9DCA84",
"0  c #BEE09B",
"q  c #A4C0E4",
"w  c #ADC6E2",
"e  c #AECAEE",
"r  c #A2C5F1",
"t  c #B9CEE7",
"y  c #B8C8F7",
"u  c #B8D1F0",
"i  c #C4EF86",
"p  c #CDEF98",
"a  c none",
"s  c #C0D1E5",
"d  c #CBDAFB",
"f  c #D7E7CD",
"g  c #DEE9DB",
"h  c #CCE0F9",
"j  c #D6E8FB",
"k  c #D8E4F2",
"l  c #DFECFA",
"z  c #FDFFDB",
"x  c #E4EBEE",
"c  c #E8EBE8",
"v  c #E5ECF5",
"b  c #EBF3E5",
"n  c #EAF3FC",
"m  c #F0F3EF",
"M  c #F0F6F8",
"N  c #F6FCFE",
"B  c #FDFFFC",
"V  c #000000",
"C  c #000000",
"Z  c #000000",
"A  c #000000",
"S  c #000000",
"D  c #000000",
"F  c #000000",
"G  c #000000",
"H  c #000000",
"J  c #000000",
"K  c #000000",
"L  c #000000",
"P  c #000000",
"I  c #000000",
"U  c #000000",
"Y  c #000000",
"T  c #000000",
"R  c #000000",
"E  c #000000",
"W  c #000000",
"Q  c #000000",
"!  c #000000",
"~  c #000000",
"^  c #000000",
"/  c #000000",
"(  c #000000",
")  c #000000",
"_  c #000000",
"`  c #000000",
"'  c #000000",
"]  c #000000",
"[  c #000000",
"{  c #000000",
"}  c #000000",
"|  c #000000",
" . c #000000",
".. c #000000",
"X. c #000000",
"o. c #000000",
"O. c #000000",
"+. c #000000",
"@. c #000000",
"#. c #000000",
"$. c #000000",
"%. c #000000",
"&. c #000000",
"*. c #000000",
"=. c #000000",
"-. c #000000",
";. c #000000",
":. c #000000",
">. c #000000",
",. c #000000",
"<. c #000000",
"1. c #000000",
"2. c #000000",
"3. c #000000",
"4. c #000000",
"5. c #000000",
"6. c #000000",
"7. c #000000",
"8. c #000000",
"9. c #000000",
"0. c #000000",
"q. c #000000",
"w. c #000000",
"e. c #000000",
"r. c #000000",
"t. c #000000",
"y. c #000000",
"u. c #000000",
"i. c #000000",
"p. c #000000",
"a. c #000000",
"s. c #000000",
"d. c #000000",
"f. c #000000",
"g. c #000000",
"h. c #000000",
"j. c #000000",
"k. c #000000",
"l. c #000000",
"z. c #000000",
"x. c #000000",
"c. c #000000",
"v. c #000000",
"b. c #000000",
"n. c #000000",
"m. c #000000",
"M. c #000000",
"N. c #000000",
"B. c #000000",
"V. c #000000",
"C. c #000000",
"Z. c #000000",
"A. c #000000",
"S. c #000000",
"D. c #000000",
"F. c #000000",
"G. c #000000",
"H. c #000000",
"J. c #000000",
"K. c #000000",
"L. c #000000",
"P. c #000000",
"I. c #000000",
"U. c #000000",
"Y. c #000000",
"T. c #000000",
"R. c #000000",
"E. c #000000",
"W. c #000000",
"Q. c #000000",
"!. c #000000",
"~. c #000000",
"^. c #000000",
"/. c #000000",
"(. c #000000",
"). c #000000",
"_. c #000000",
"`. c #000000",
"'. c #000000",
"]. c #000000",
"[. c #000000",
"{. c #000000",
"}. c #000000",
"|. c #000000",
" X c #000000",
".X c #000000",
"XX c #000000",
"oX c #000000",
"OX c #000000",
"+X c #000000",
"@X c #000000",
"#X c #000000",
"$X c #000000",
"%X c #000000",
"&X c #000000",
"*X c #000000",
"=X c #000000",
"-X c #000000",
";X c #000000",
":X c #000000",
">X c #000000",
",X c #000000",
"<X c #000000",
"1X c #000000",
"2X c #000000",
"3X c #000000",
"4X c #000000",
"5X c #000000",
"6X c #000000",
"7X c #000000",
"8X c #000000",
"9X c #000000",
"0X c #000000",
"qX c #000000",
"wX c #000000",
"eX c #000000",
"rX c #000000",
"tX c #000000",
"yX c #000000",
"uX c #000000",
"iX c #000000",
"pX c #000000",
"aX c #000000",
"sX c #000000",
"dX c #000000",
"fX c #000000",
"gX c #000000",
"hX c #000000",
"jX c #000000",
"kX c #000000",
"lX c #000000",
"zX c #000000",
"xX c #000000",
"cX c #000000",
"vX c #000000",
"bX c #000000",
"nX c #000000",
"mX c #000000",
"MX c #000000",
"NX c #000000",
"BX c #000000",
"VX c #000000",
"CX c #000000",
"ZX c #000000",
"AX c #000000",
"SX c #000000",
"DX c #000000",
"FX c #000000",
"GX c #000000",
"HX c #000000",
"JX c #000000",
"KX c #000000",
"LX c #000000",
"PX c #000000",
"IX c #000000",
"UX c #000000",
/* pixels */
"a a a a a a a a a a a a a a a a a a ",
"a a # # # # # # + + # # # + a a a a ",
"a # u h n v k l k v n l k t : o a a ",
"a # e e B k 2 B B B B N n h w # a a ",
"a # e 8 N w : n N N n l j 8 q # a a ",
"a # e r N k w B B B n n l 8 4 # a a ",
"a # e 4 w t t t s t w w q 4 4 # a a ",
"a # e 3 & % = = : = : & % - = % a a ",
"a + e 3 > > > & e B t B B B B q & a ",
"a + e 3 > > > $ r B - B B N n 4 & a ",
"a + 6 4 u d d $ 8 N N N N N N : # a ",
"a # 5 8 b 0 0 & 4 , : , , , , , $ a ",
"a # 4 8 g 9 9 & 5 , , , , , , = O a ",
"a # 6 y b 0 1 # 4 M c c x c m , X a ",
"a + 6 u M f f # 7 b @ 1 1 < b > X a ",
"a . # # # + + # u z i p p i z : X a ",
"a a a a a a a . $ & * ; ; ; & X   a ",
"a a a a a a a a a a a a a a a a a a "
};
