/* XPM */
static char *Save[] = {
/* columns rows colors chars-per-pixel */
"20 18 256 2",
"   c #000000",
".  c #800000",
"X  c #008000",
"o  c #808000",
"O  c #000080",
"+  c #800080",
"@  c #008080",
"#  c none",
"$  c #C0DCC0",
"%  c #A6CAF0",
"&  c #402000",
"*  c #602000",
"=  c #802000",
"-  c #A02000",
";  c #C02000",
":  c #E02000",
">  c #004000",
",  c #204000",
"<  c #404000",
"1  c #604000",
"2  c #804000",
"3  c #A04000",
"4  c #C04000",
"5  c #E04000",
"6  c #006000",
"7  c #206000",
"8  c #406000",
"9  c #606000",
"0  c #806000",
"q  c #A06000",
"w  c #C06000",
"e  c #E06000",
"r  c #008000",
"t  c #208000",
"y  c #408000",
"u  c #608000",
"i  c #808000",
"p  c #A08000",
"a  c #C08000",
"s  c #E08000",
"d  c #00A000",
"f  c #20A000",
"g  c #40A000",
"h  c #60A000",
"j  c #80A000",
"k  c #A0A000",
"l  c #C0A000",
"z  c #E0A000",
"x  c #00C000",
"c  c #20C000",
"v  c #40C000",
"b  c #60C000",
"n  c #80C000",
"m  c #A0C000",
"M  c #C0C000",
"N  c #E0C000",
"B  c #00E000",
"V  c #20E000",
"C  c #40E000",
"Z  c #60E000",
"A  c #80E000",
"S  c #A0E000",
"D  c #C0E000",
"F  c #E0E000",
"G  c #000040",
"H  c #200040",
"J  c #400040",
"K  c #600040",
"L  c #800040",
"P  c #A00040",
"I  c #C00040",
"U  c #E00040",
"Y  c #002040",
"T  c #202040",
"R  c #402040",
"E  c #602040",
"W  c #802040",
"Q  c #A02040",
"!  c #C02040",
"~  c #E02040",
"^  c #004040",
"/  c #204040",
"(  c #404040",
")  c #604040",
"_  c #804040",
"`  c #A04040",
"'  c #C04040",
"]  c #E04040",
"[  c #006040",
"{  c #206040",
"}  c #406040",
"|  c #606040",
" . c #806040",
".. c #A06040",
"X. c #C06040",
"o. c #E06040",
"O. c #008040",
"+. c #208040",
"@. c #408040",
"#. c #608040",
"$. c #808040",
"%. c #A08040",
"&. c #C08040",
"*. c #E08040",
"=. c #00A040",
"-. c #20A040",
";. c #40A040",
":. c #60A040",
">. c #80A040",
",. c #A0A040",
"<. c #C0A040",
"1. c #E0A040",
"2. c #00C040",
"3. c #20C040",
"4. c #40C040",
"5. c #60C040",
"6. c #80C040",
"7. c #A0C040",
"8. c #C0C040",
"9. c #E0C040",
"0. c #00E040",
"q. c #20E040",
"w. c #40E040",
"e. c #60E040",
"r. c #80E040",
"t. c #A0E040",
"y. c #C0E040",
"u. c #E0E040",
"i. c #000080",
"p. c #200080",
"a. c #400080",
"s. c #600080",
"d. c #800080",
"f. c #A00080",
"g. c #C00080",
"h. c #E00080",
"j. c #002080",
"k. c #202080",
"l. c #402080",
"z. c #602080",
"x. c #802080",
"c. c #A02080",
"v. c #C02080",
"b. c #E02080",
"n. c #004080",
"m. c #204080",
"M. c #404080",
"N. c #604080",
"B. c #804080",
"V. c #A04080",
"C. c #C04080",
"Z. c #E04080",
"A. c #006080",
"S. c #206080",
"D. c #406080",
"F. c #606080",
"G. c #806080",
"H. c #A06080",
"J. c #C06080",
"K. c #E06080",
"L. c #008080",
"P. c #208080",
"I. c #408080",
"U. c #608080",
"Y. c #808080",
"T. c #A08080",
"R. c #C08080",
"E. c #E08080",
"W. c #00A080",
"Q. c #20A080",
"!. c #40A080",
"~. c #60A080",
"^. c #80A080",
"/. c #A0A080",
"(. c #C0A080",
"). c #E0A080",
"_. c #00C080",
"`. c #20C080",
"'. c #40C080",
"]. c #60C080",
"[. c #80C080",
"{. c #A0C080",
"}. c #C0C080",
"|. c #E0C080",
" X c #00E080",
".X c #20E080",
"XX c #40E080",
"oX c #60E080",
"OX c #80E080",
"+X c #A0E080",
"@X c #C0E080",
"#X c #E0E080",
"$X c #0000C0",
"%X c #2000C0",
"&X c #4000C0",
"*X c #6000C0",
"=X c #8000C0",
"-X c #A000C0",
";X c #C000C0",
":X c #E000C0",
">X c #0020C0",
",X c #2020C0",
"<X c #4020C0",
"1X c #6020C0",
"2X c #8020C0",
"3X c #A020C0",
"4X c #C020C0",
"5X c #E020C0",
"6X c #0040C0",
"7X c #2040C0",
"8X c #4040C0",
"9X c #6040C0",
"0X c #8040C0",
"qX c #A040C0",
"wX c #C040C0",
"eX c #E040C0",
"rX c #0060C0",
"tX c #2060C0",
"yX c #4060C0",
"uX c #6060C0",
"iX c #8060C0",
"pX c #A060C0",
"aX c #C060C0",
"sX c #E060C0",
"dX c #0080C0",
"fX c #2080C0",
"gX c #4080C0",
"hX c #6080C0",
"jX c #8080C0",
"kX c #A080C0",
"lX c #C080C0",
"zX c #E080C0",
"xX c #00A0C0",
"cX c #20A0C0",
"vX c #40A0C0",
"bX c #60A0C0",
"nX c #80A0C0",
"mX c #A0A0C0",
"MX c #C0A0C0",
"NX c #E0A0C0",
"BX c #00C0C0",
"VX c #20C0C0",
"CX c #40C0C0",
"ZX c #60C0C0",
"AX c #80C0C0",
"SX c #A0C0C0",
"DX c #FFFBF0",
"FX c #A0A0A4",
"GX c #808080",
"HX c #FF0000",
"JX c #00FF00",
"KX c #FFFF00",
"LX c #0000FF",
"PX c #FF00FF",
"IX c #00FFFF",
"UX c #FFFFFF",
/* pixels */
"# # # # # # # # # # # # # # # # # # # # ",
"# # # yXyXyXyXyXyXyXyXyXyXyXyXgX# # # # ",
"# # yX% % UXUXUXUXUXUXUXUXUXDX% hX# # # ",
"# # yX% nXUXUXhXUXUXUXUXUXDXDX% % gX# # ",
"# # yX% nXUXUXhXUXUXUXUXUXDXDXnX% yX# # ",
"# # yX% nXUXUXhXUXUXUXUXDXDXDXnX% yX# # ",
"# # yX% nXDXDXDXUXUXUXDXDXDXDXnX% yX# # ",
"# # yX% nXhXhXhXhXhXhXhXhXhXhXbXSXyX# # ",
"# # yX% nXnXnXnXnXnXnXnXnXnXbXnX% yX# # ",
"# # yX% nXnXnXnXnXnXnXnXnXnXnXbXnXyX# # ",
"# # yX% nXnXnXnXnXnXnXnXnXbXnXbXnXtX# # ",
"# # yX% nXUXUXUXUXUXUXUXUXUXUXbXnXtX# # ",
"# # yX% nXUX6.6.6.6.6.6.6.6.UXnXnXtX# # ",
"# # yX% nXUX$ $ $ $ $ $ $ $ UXhXnXtX# # ",
"# # yX% nXUX6.6.6.6.6.6.6.6.UXhXnXtX# # ",
"# # yX% % UXUXUXUXUXUXUXUXUXUXnXnXtX# # ",
"# # yXyXyXyXyXyXyXyXtXtXtXtXtXtXtXtX# # ",
"# # # # # # # # # # # # # # # # # # # # "
};
