/* XPM */
static char *Shell[] = {
/* columns rows colors chars-per-pixel */
"18 18 256 2",
"   c #1C1F1F",
".  c #242625",
"X  c #2D2F2E",
"o  c #363835",
"O  c #3E403D",
"+  c #464745",
"@  c #545553",
"#  c #5D5F5C",
"$  c #6E706D",
"%  c #5173AB",
"&  c #547EB5",
"*  c #5B7CB6",
"=  c #6185B8",
"-  c #5E86C1",
";  c #6B8EC2",
":  c #6995C8",
">  c #7396CA",
",  c #779AC5",
"<  c #7997C6",
"1  c #7C9ED3",
"2  c #75A1D4",
"3  c #76A2DC",
"4  c #7CA8DB",
"5  c #FF6441",
"6  c #A5A7A5",
"7  c #ACAEAB",
"8  c #82ABD9",
"9  c #8AB1E1",
"0  c #93B9E8",
"q  c #BBC1C5",
"w  c #A4C0E4",
"e  c #A2C5F1",
"r  c none",
"t  c #D0D2CF",
"y  c #C8D9ED",
"u  c #E0E2DF",
"i  c #000000",
"p  c #000000",
"a  c #000000",
"s  c #000000",
"d  c #000000",
"f  c #000000",
"g  c #000000",
"h  c #000000",
"j  c #000000",
"k  c #000000",
"l  c #000000",
"z  c #000000",
"x  c #000000",
"c  c #000000",
"v  c #000000",
"b  c #000000",
"n  c #000000",
"m  c #000000",
"M  c #000000",
"N  c #000000",
"B  c #000000",
"V  c #000000",
"C  c #000000",
"Z  c #000000",
"A  c #000000",
"S  c #000000",
"D  c #000000",
"F  c #000000",
"G  c #000000",
"H  c #000000",
"J  c #000000",
"K  c #000000",
"L  c #000000",
"P  c #000000",
"I  c #000000",
"U  c #000000",
"Y  c #000000",
"T  c #000000",
"R  c #000000",
"E  c #000000",
"W  c #000000",
"Q  c #000000",
"!  c #000000",
"~  c #000000",
"^  c #000000",
"/  c #000000",
"(  c #000000",
")  c #000000",
"_  c #000000",
"`  c #000000",
"'  c #000000",
"]  c #000000",
"[  c #000000",
"{  c #000000",
"}  c #000000",
"|  c #000000",
" . c #000000",
".. c #000000",
"X. c #000000",
"o. c #000000",
"O. c #000000",
"+. c #000000",
"@. c #000000",
"#. c #000000",
"$. c #000000",
"%. c #000000",
"&. c #000000",
"*. c #000000",
"=. c #000000",
"-. c #000000",
";. c #000000",
":. c #000000",
">. c #000000",
",. c #000000",
"<. c #000000",
"1. c #000000",
"2. c #000000",
"3. c #000000",
"4. c #000000",
"5. c #000000",
"6. c #000000",
"7. c #000000",
"8. c #000000",
"9. c #000000",
"0. c #000000",
"q. c #000000",
"w. c #000000",
"e. c #000000",
"r. c #000000",
"t. c #000000",
"y. c #000000",
"u. c #000000",
"i. c #000000",
"p. c #000000",
"a. c #000000",
"s. c #000000",
"d. c #000000",
"f. c #000000",
"g. c #000000",
"h. c #000000",
"j. c #000000",
"k. c #000000",
"l. c #000000",
"z. c #000000",
"x. c #000000",
"c. c #000000",
"v. c #000000",
"b. c #000000",
"n. c #000000",
"m. c #000000",
"M. c #000000",
"N. c #000000",
"B. c #000000",
"V. c #000000",
"C. c #000000",
"Z. c #000000",
"A. c #000000",
"S. c #000000",
"D. c #000000",
"F. c #000000",
"G. c #000000",
"H. c #000000",
"J. c #000000",
"K. c #000000",
"L. c #000000",
"P. c #000000",
"I. c #000000",
"U. c #000000",
"Y. c #000000",
"T. c #000000",
"R. c #000000",
"E. c #000000",
"W. c #000000",
"Q. c #000000",
"!. c #000000",
"~. c #000000",
"^. c #000000",
"/. c #000000",
"(. c #000000",
"). c #000000",
"_. c #000000",
"`. c #000000",
"'. c #000000",
"]. c #000000",
"[. c #000000",
"{. c #000000",
"}. c #000000",
"|. c #000000",
" X c #000000",
".X c #000000",
"XX c #000000",
"oX c #000000",
"OX c #000000",
"+X c #000000",
"@X c #000000",
"#X c #000000",
"$X c #000000",
"%X c #000000",
"&X c #000000",
"*X c #000000",
"=X c #000000",
"-X c #000000",
";X c #000000",
":X c #000000",
">X c #000000",
",X c #000000",
"<X c #000000",
"1X c #000000",
"2X c #000000",
"3X c #000000",
"4X c #000000",
"5X c #000000",
"6X c #000000",
"7X c #000000",
"8X c #000000",
"9X c #000000",
"0X c #000000",
"qX c #000000",
"wX c #000000",
"eX c #000000",
"rX c #000000",
"tX c #000000",
"yX c #000000",
"uX c #000000",
"iX c #000000",
"pX c #000000",
"aX c #000000",
"sX c #000000",
"dX c #000000",
"fX c #000000",
"gX c #000000",
"hX c #000000",
"jX c #000000",
"kX c #000000",
"lX c #000000",
"zX c #000000",
"xX c #000000",
"cX c #000000",
"vX c #000000",
"bX c #000000",
"nX c #000000",
"mX c #000000",
"MX c #000000",
"NX c #000000",
"BX c #000000",
"VX c #000000",
"CX c #000000",
"ZX c #000000",
"AX c #000000",
"SX c #000000",
"DX c #000000",
"FX c #000000",
"GX c #000000",
"HX c #000000",
"JX c #000000",
"KX c #000000",
"LX c #000000",
"PX c #000000",
"IX c #000000",
"UX c #000000",
/* pixels */
"r r r r r r r r r r r r r r r r r r ",
"r r r r r r r r r r r r r r r r r r ",
"r 8 9 4 4 4 2 3 2 1 2 > : > > , < r ",
"r 8 y e 0 0 0 0 0 0 q 0 q 0 5 w ; r ",
"r 4 3 3 2 1 1 2 2 > > > > ; ; ; ; r ",
"r 3 X X o o o o o o o O O O O O - r ",
"r 2 o     . . . . . X X X X X + = r ",
"r 2 o   t 6 . . . . X X X X X + & r ",
"r 2 o . . u $ X X X X X X o o + * r ",
"r 1 O . t 7 X X X X o o o o o @ * r ",
"r 2 O X X X o o o o o o o O O @ * r ",
"r > + o o o o o o o O O O O O @ & r ",
"r > + o o o O O O O O O O + + @ % r ",
"r > @ O O O O O O O + + + + + # % r ",
"r ; @ @ @ @ @ @ @ @ @ # # # # # % r ",
"r ; ; ; - - & & * * & & % % % % % r ",
"r r r r r r r r r r r r r r r r r r ",
"r r r r r r r r r r r r r r r r r r "
};
