/* XPM */
static char *WinMaxWidth[] = {
/* columns rows colors chars-per-pixel */
"18 18 256 2",
"   c #37792F",
".  c #5173AB",
"X  c #547EB5",
"o  c #5B7CB6",
"O  c #3C8438",
"+  c #539454",
"@  c #5FAD55",
"#  c #62A356",
"$  c #6AB85A",
"%  c #65A861",
"&  c #6AA574",
"*  c #71B66B",
"=  c #7AB66F",
"-  c #72C365",
";  c #6185B8",
":  c #5E86C1",
">  c #6B8EC2",
",  c #6995C8",
"<  c #7396CA",
"1  c #779AC5",
"2  c #7C9ED3",
"3  c #75A1D4",
"4  c #76A2DC",
"5  c #7CA8DB",
"6  c #84C27B",
"7  c #82ABD9",
"8  c #8AB1E1",
"9  c #93B9E8",
"0  c #89C985",
"q  c #94CC8B",
"w  c #A0D398",
"e  c #AAD3A1",
"r  c #AEDBA5",
"t  c #BDE6B5",
"y  c none",
"u  c #D7E7CD",
"i  c #D9FCD3",
"p  c #E0FFDC",
"a  c #E4EBEE",
"s  c #E5ECF5",
"d  c #EAF3FC",
"f  c #F0F6F8",
"g  c #F6FCFE",
"h  c #F9FCF8",
"j  c #FDFFFC",
"k  c #000000",
"l  c #000000",
"z  c #000000",
"x  c #000000",
"c  c #000000",
"v  c #000000",
"b  c #000000",
"n  c #000000",
"m  c #000000",
"M  c #000000",
"N  c #000000",
"B  c #000000",
"V  c #000000",
"C  c #000000",
"Z  c #000000",
"A  c #000000",
"S  c #000000",
"D  c #000000",
"F  c #000000",
"G  c #000000",
"H  c #000000",
"J  c #000000",
"K  c #000000",
"L  c #000000",
"P  c #000000",
"I  c #000000",
"U  c #000000",
"Y  c #000000",
"T  c #000000",
"R  c #000000",
"E  c #000000",
"W  c #000000",
"Q  c #000000",
"!  c #000000",
"~  c #000000",
"^  c #000000",
"/  c #000000",
"(  c #000000",
")  c #000000",
"_  c #000000",
"`  c #000000",
"'  c #000000",
"]  c #000000",
"[  c #000000",
"{  c #000000",
"}  c #000000",
"|  c #000000",
" . c #000000",
".. c #000000",
"X. c #000000",
"o. c #000000",
"O. c #000000",
"+. c #000000",
"@. c #000000",
"#. c #000000",
"$. c #000000",
"%. c #000000",
"&. c #000000",
"*. c #000000",
"=. c #000000",
"-. c #000000",
";. c #000000",
":. c #000000",
">. c #000000",
",. c #000000",
"<. c #000000",
"1. c #000000",
"2. c #000000",
"3. c #000000",
"4. c #000000",
"5. c #000000",
"6. c #000000",
"7. c #000000",
"8. c #000000",
"9. c #000000",
"0. c #000000",
"q. c #000000",
"w. c #000000",
"e. c #000000",
"r. c #000000",
"t. c #000000",
"y. c #000000",
"u. c #000000",
"i. c #000000",
"p. c #000000",
"a. c #000000",
"s. c #000000",
"d. c #000000",
"f. c #000000",
"g. c #000000",
"h. c #000000",
"j. c #000000",
"k. c #000000",
"l. c #000000",
"z. c #000000",
"x. c #000000",
"c. c #000000",
"v. c #000000",
"b. c #000000",
"n. c #000000",
"m. c #000000",
"M. c #000000",
"N. c #000000",
"B. c #000000",
"V. c #000000",
"C. c #000000",
"Z. c #000000",
"A. c #000000",
"S. c #000000",
"D. c #000000",
"F. c #000000",
"G. c #000000",
"H. c #000000",
"J. c #000000",
"K. c #000000",
"L. c #000000",
"P. c #000000",
"I. c #000000",
"U. c #000000",
"Y. c #000000",
"T. c #000000",
"R. c #000000",
"E. c #000000",
"W. c #000000",
"Q. c #000000",
"!. c #000000",
"~. c #000000",
"^. c #000000",
"/. c #000000",
"(. c #000000",
"). c #000000",
"_. c #000000",
"`. c #000000",
"'. c #000000",
"]. c #000000",
"[. c #000000",
"{. c #000000",
"}. c #000000",
"|. c #000000",
" X c #000000",
".X c #000000",
"XX c #000000",
"oX c #000000",
"OX c #000000",
"+X c #000000",
"@X c #000000",
"#X c #000000",
"$X c #000000",
"%X c #000000",
"&X c #000000",
"*X c #000000",
"=X c #000000",
"-X c #000000",
";X c #000000",
":X c #000000",
">X c #000000",
",X c #000000",
"<X c #000000",
"1X c #000000",
"2X c #000000",
"3X c #000000",
"4X c #000000",
"5X c #000000",
"6X c #000000",
"7X c #000000",
"8X c #000000",
"9X c #000000",
"0X c #000000",
"qX c #000000",
"wX c #000000",
"eX c #000000",
"rX c #000000",
"tX c #000000",
"yX c #000000",
"uX c #000000",
"iX c #000000",
"pX c #000000",
"aX c #000000",
"sX c #000000",
"dX c #000000",
"fX c #000000",
"gX c #000000",
"hX c #000000",
"jX c #000000",
"kX c #000000",
"lX c #000000",
"zX c #000000",
"xX c #000000",
"cX c #000000",
"vX c #000000",
"bX c #000000",
"nX c #000000",
"mX c #000000",
"MX c #000000",
"NX c #000000",
"BX c #000000",
"VX c #000000",
"CX c #000000",
"ZX c #000000",
"AX c #000000",
"SX c #000000",
"DX c #000000",
"FX c #000000",
"GX c #000000",
"HX c #000000",
"JX c #000000",
"KX c #000000",
"LX c #000000",
"PX c #000000",
"IX c #000000",
"UX c #000000",
/* pixels */
"y y y y y y y y y y y y y y y y y y ",
"y y y y y y y y y y y y y y y y y y ",
"y y 8 5 5 5 3 3 2 3 < , < < 1 y y y ",
"y 7 9 9 9 9 9 9 9 9 9 9 9 9 9 > y y ",
"y 5 5 5 5 5 5 5 5 5 5 5 5 5 5 > y y ",
"y 4 p p p i t - j j j j j j j : y y ",
"y 3 p p p i t - j 0 a s s s j ; y y ",
"y 3 p p p i t $ j @ * f d s j X y y ",
"y 3 p p p i t 6 @ * % % d d j o y y ",
"y 2 p p p p r = w q q % O f j o y y ",
"y 3 p p p i r = # = # + g f j o y y ",
"y < p p p i e # u O + g g g j . y y ",
"y < p p p i e O j & h g g g j . y y ",
"y > p p p i e   j j j j j j j . y y ",
"y . > > : : X o o X X . . . . . y y ",
"y y y y y y y y y y y y y y y y y y ",
"y y y y y y y y y y y y y y y y y y ",
"y y y y y y y y y y y y y y y y y y "
};
