/* XPM */
static char *WinMinWidth[] = {
/* columns rows colors chars-per-pixel */
"18 18 256 2",
"   c #226322",
".  c #2C6E25",
"X  c #37792F",
"o  c #5173AB",
"O  c #547EB5",
"+  c #5B7CB6",
"@  c #4F9744",
"#  c #539454",
"$  c #53A34E",
"%  c #5FAD55",
"&  c #62A356",
"*  c #65A861",
"=  c #71B66B",
"-  c #7AB66F",
";  c #7BC076",
":  c #6185B8",
">  c #5E86C1",
",  c #6B8EC2",
"<  c #6995C8",
"1  c #7396CA",
"2  c #779AC5",
"3  c #7C9ED3",
"4  c #75A1D4",
"5  c #76A2DC",
"6  c #7CA8DB",
"7  c #82ABD9",
"8  c #8AB1E1",
"9  c #93B9E8",
"0  c #94CC8B",
"q  c #AAC3A7",
"w  c #BDE6B5",
"e  c #C0D9BB",
"r  c none",
"t  c #DEE9DB",
"y  c #D9FCD3",
"u  c #E0FFDC",
"i  c #E8EBE8",
"p  c #EBF3E5",
"a  c #F9FCF8",
"s  c #FDFFFC",
"d  c #000000",
"f  c #000000",
"g  c #000000",
"h  c #000000",
"j  c #000000",
"k  c #000000",
"l  c #000000",
"z  c #000000",
"x  c #000000",
"c  c #000000",
"v  c #000000",
"b  c #000000",
"n  c #000000",
"m  c #000000",
"M  c #000000",
"N  c #000000",
"B  c #000000",
"V  c #000000",
"C  c #000000",
"Z  c #000000",
"A  c #000000",
"S  c #000000",
"D  c #000000",
"F  c #000000",
"G  c #000000",
"H  c #000000",
"J  c #000000",
"K  c #000000",
"L  c #000000",
"P  c #000000",
"I  c #000000",
"U  c #000000",
"Y  c #000000",
"T  c #000000",
"R  c #000000",
"E  c #000000",
"W  c #000000",
"Q  c #000000",
"!  c #000000",
"~  c #000000",
"^  c #000000",
"/  c #000000",
"(  c #000000",
")  c #000000",
"_  c #000000",
"`  c #000000",
"'  c #000000",
"]  c #000000",
"[  c #000000",
"{  c #000000",
"}  c #000000",
"|  c #000000",
" . c #000000",
".. c #000000",
"X. c #000000",
"o. c #000000",
"O. c #000000",
"+. c #000000",
"@. c #000000",
"#. c #000000",
"$. c #000000",
"%. c #000000",
"&. c #000000",
"*. c #000000",
"=. c #000000",
"-. c #000000",
";. c #000000",
":. c #000000",
">. c #000000",
",. c #000000",
"<. c #000000",
"1. c #000000",
"2. c #000000",
"3. c #000000",
"4. c #000000",
"5. c #000000",
"6. c #000000",
"7. c #000000",
"8. c #000000",
"9. c #000000",
"0. c #000000",
"q. c #000000",
"w. c #000000",
"e. c #000000",
"r. c #000000",
"t. c #000000",
"y. c #000000",
"u. c #000000",
"i. c #000000",
"p. c #000000",
"a. c #000000",
"s. c #000000",
"d. c #000000",
"f. c #000000",
"g. c #000000",
"h. c #000000",
"j. c #000000",
"k. c #000000",
"l. c #000000",
"z. c #000000",
"x. c #000000",
"c. c #000000",
"v. c #000000",
"b. c #000000",
"n. c #000000",
"m. c #000000",
"M. c #000000",
"N. c #000000",
"B. c #000000",
"V. c #000000",
"C. c #000000",
"Z. c #000000",
"A. c #000000",
"S. c #000000",
"D. c #000000",
"F. c #000000",
"G. c #000000",
"H. c #000000",
"J. c #000000",
"K. c #000000",
"L. c #000000",
"P. c #000000",
"I. c #000000",
"U. c #000000",
"Y. c #000000",
"T. c #000000",
"R. c #000000",
"E. c #000000",
"W. c #000000",
"Q. c #000000",
"!. c #000000",
"~. c #000000",
"^. c #000000",
"/. c #000000",
"(. c #000000",
"). c #000000",
"_. c #000000",
"`. c #000000",
"'. c #000000",
"]. c #000000",
"[. c #000000",
"{. c #000000",
"}. c #000000",
"|. c #000000",
" X c #000000",
".X c #000000",
"XX c #000000",
"oX c #000000",
"OX c #000000",
"+X c #000000",
"@X c #000000",
"#X c #000000",
"$X c #000000",
"%X c #000000",
"&X c #000000",
"*X c #000000",
"=X c #000000",
"-X c #000000",
";X c #000000",
":X c #000000",
">X c #000000",
",X c #000000",
"<X c #000000",
"1X c #000000",
"2X c #000000",
"3X c #000000",
"4X c #000000",
"5X c #000000",
"6X c #000000",
"7X c #000000",
"8X c #000000",
"9X c #000000",
"0X c #000000",
"qX c #000000",
"wX c #000000",
"eX c #000000",
"rX c #000000",
"tX c #000000",
"yX c #000000",
"uX c #000000",
"iX c #000000",
"pX c #000000",
"aX c #000000",
"sX c #000000",
"dX c #000000",
"fX c #000000",
"gX c #000000",
"hX c #000000",
"jX c #000000",
"kX c #000000",
"lX c #000000",
"zX c #000000",
"xX c #000000",
"cX c #000000",
"vX c #000000",
"bX c #000000",
"nX c #000000",
"mX c #000000",
"MX c #000000",
"NX c #000000",
"BX c #000000",
"VX c #000000",
"CX c #000000",
"ZX c #000000",
"AX c #000000",
"SX c #000000",
"DX c #000000",
"FX c #000000",
"GX c #000000",
"HX c #000000",
"JX c #000000",
"KX c #000000",
"LX c #000000",
"PX c #000000",
"IX c #000000",
"UX c #000000",
/* pixels */
"r r r r r r r r r r r r r r r r r r ",
"r r r r r r r r r r r r r r r r r r ",
"r r 8 6 6 6 4 4 3 4 1 < 1 1 2 r r r ",
"r 7 9 9 9 9 9 9 9 9 9 9 9 9 9 , r r ",
"r 6 6 6 6 6 6 6 6 6 6 6 6 6 6 , r r ",
"r 5 y y y y y % e p a s s s s > r r ",
"r 4 y y y ; y $ e p a s s s s : r r ",
"r 4 y y = % w & e p a s s s s O r r ",
"r 4 y = = - & * q p a s s s s + r r ",
"r 3 % = 0 0 0 * q p a s s s s + r r ",
"r 4 y & * & X # q t a s s s s + r r ",
"r 1 y y @ X u . q i a s s s s o r r ",
"r 1 y y y # u   q t a s s s s o r r ",
"r , y y y y u   q t a s s s s o r r ",
"r o , , > > O + + O O o o o o o r r ",
"r r r r r r r r r r r r r r r r r r ",
"r r r r r r r r r r r r r r r r r r ",
"r r r r r r r r r r r r r r r r r r "
};
