/* XPM */
static char *WinMin[] = {
/* columns rows colors chars-per-pixel */
"18 18 256 2",
"   c #2C6E25",
".  c #37792F",
"X  c #34783E",
"o  c #3E7753",
"O  c #5173AB",
"+  c #547EB5",
"@  c #5B7CB6",
"#  c #3C8438",
"$  c #478E3C",
"%  c #539454",
"&  c #53A34E",
"*  c #5FAD55",
"=  c #62A356",
"-  c #6AB85A",
";  c #65A861",
":  c #71B66B",
">  c #6185B8",
",  c #5E86C1",
"<  c #6B8EC2",
"1  c #6995C8",
"2  c #7396CA",
"3  c #779AC5",
"4  c #7C9ED3",
"5  c #75A1D4",
"6  c #76A2DC",
"7  c #7CA8DB",
"8  c #82ABD9",
"9  c #8AB1E1",
"0  c #93B9E8",
"q  c #8CC380",
"w  c #89C985",
"e  c #94CC8B",
"r  c #A0D398",
"t  c none",
"y  c #D7E7CD",
"u  c #E5ECF5",
"i  c #EAF3FC",
"p  c #F0F6F8",
"a  c #F6FCFE",
"s  c #F9FCF8",
"d  c #FDFFFC",
"f  c #000000",
"g  c #000000",
"h  c #000000",
"j  c #000000",
"k  c #000000",
"l  c #000000",
"z  c #000000",
"x  c #000000",
"c  c #000000",
"v  c #000000",
"b  c #000000",
"n  c #000000",
"m  c #000000",
"M  c #000000",
"N  c #000000",
"B  c #000000",
"V  c #000000",
"C  c #000000",
"Z  c #000000",
"A  c #000000",
"S  c #000000",
"D  c #000000",
"F  c #000000",
"G  c #000000",
"H  c #000000",
"J  c #000000",
"K  c #000000",
"L  c #000000",
"P  c #000000",
"I  c #000000",
"U  c #000000",
"Y  c #000000",
"T  c #000000",
"R  c #000000",
"E  c #000000",
"W  c #000000",
"Q  c #000000",
"!  c #000000",
"~  c #000000",
"^  c #000000",
"/  c #000000",
"(  c #000000",
")  c #000000",
"_  c #000000",
"`  c #000000",
"'  c #000000",
"]  c #000000",
"[  c #000000",
"{  c #000000",
"}  c #000000",
"|  c #000000",
" . c #000000",
".. c #000000",
"X. c #000000",
"o. c #000000",
"O. c #000000",
"+. c #000000",
"@. c #000000",
"#. c #000000",
"$. c #000000",
"%. c #000000",
"&. c #000000",
"*. c #000000",
"=. c #000000",
"-. c #000000",
";. c #000000",
":. c #000000",
">. c #000000",
",. c #000000",
"<. c #000000",
"1. c #000000",
"2. c #000000",
"3. c #000000",
"4. c #000000",
"5. c #000000",
"6. c #000000",
"7. c #000000",
"8. c #000000",
"9. c #000000",
"0. c #000000",
"q. c #000000",
"w. c #000000",
"e. c #000000",
"r. c #000000",
"t. c #000000",
"y. c #000000",
"u. c #000000",
"i. c #000000",
"p. c #000000",
"a. c #000000",
"s. c #000000",
"d. c #000000",
"f. c #000000",
"g. c #000000",
"h. c #000000",
"j. c #000000",
"k. c #000000",
"l. c #000000",
"z. c #000000",
"x. c #000000",
"c. c #000000",
"v. c #000000",
"b. c #000000",
"n. c #000000",
"m. c #000000",
"M. c #000000",
"N. c #000000",
"B. c #000000",
"V. c #000000",
"C. c #000000",
"Z. c #000000",
"A. c #000000",
"S. c #000000",
"D. c #000000",
"F. c #000000",
"G. c #000000",
"H. c #000000",
"J. c #000000",
"K. c #000000",
"L. c #000000",
"P. c #000000",
"I. c #000000",
"U. c #000000",
"Y. c #000000",
"T. c #000000",
"R. c #000000",
"E. c #000000",
"W. c #000000",
"Q. c #000000",
"!. c #000000",
"~. c #000000",
"^. c #000000",
"/. c #000000",
"(. c #000000",
"). c #000000",
"_. c #000000",
"`. c #000000",
"'. c #000000",
"]. c #000000",
"[. c #000000",
"{. c #000000",
"}. c #000000",
"|. c #000000",
" X c #000000",
".X c #000000",
"XX c #000000",
"oX c #000000",
"OX c #000000",
"+X c #000000",
"@X c #000000",
"#X c #000000",
"$X c #000000",
"%X c #000000",
"&X c #000000",
"*X c #000000",
"=X c #000000",
"-X c #000000",
";X c #000000",
":X c #000000",
">X c #000000",
",X c #000000",
"<X c #000000",
"1X c #000000",
"2X c #000000",
"3X c #000000",
"4X c #000000",
"5X c #000000",
"6X c #000000",
"7X c #000000",
"8X c #000000",
"9X c #000000",
"0X c #000000",
"qX c #000000",
"wX c #000000",
"eX c #000000",
"rX c #000000",
"tX c #000000",
"yX c #000000",
"uX c #000000",
"iX c #000000",
"pX c #000000",
"aX c #000000",
"sX c #000000",
"dX c #000000",
"fX c #000000",
"gX c #000000",
"hX c #000000",
"jX c #000000",
"kX c #000000",
"lX c #000000",
"zX c #000000",
"xX c #000000",
"cX c #000000",
"vX c #000000",
"bX c #000000",
"nX c #000000",
"mX c #000000",
"MX c #000000",
"NX c #000000",
"BX c #000000",
"VX c #000000",
"CX c #000000",
"ZX c #000000",
"AX c #000000",
"SX c #000000",
"DX c #000000",
"FX c #000000",
"GX c #000000",
"HX c #000000",
"JX c #000000",
"KX c #000000",
"LX c #000000",
"PX c #000000",
"IX c #000000",
"UX c #000000",
/* pixels */
"t t t t t t t t t t t t t t t t t t ",
"t t t t t t t t t t t t t t t t t t ",
"t t t 9 7 7 7 5 5 4 5 2 1 2 2 3 t t ",
"t t 8 0 0 0 0 0 0 0 0 0 0 0 0 0 < t ",
"t t 7 7 7 7 7 7 7 7 7 7 7 7 7 7 < t ",
"t t 6 d d d d d d d d d d d d d , t ",
"t t 5 d a a a p p p p u u u u d > t ",
"t t 5 d a s a a p p p p p i u d + t ",
"t t 5 d s s a a a a p p p i i d @ t ",
"t t 4 d d s s s a a a a p p p d @ t ",
"t t 5 d d d d s s a a - - * & d @ t ",
"t t 2 d a d d d a a a - r r & d O t ",
"t t 2 d d d d d d d d * r e = y O t ",
"t t < d d d d d d q * : e e : # o t ",
"t t O < < , , + @ + % ; e w % X O t ",
"t t t t t t t t t t t $ = % . t t t ",
"t t t t t t t t t t t t .   t t t t ",
"t t t t t t t t t t t t t t t t t t "
};
